<svg width="207" height="162" viewBox="0 0 207 162" fill="none" xmlns="http://www.w3.org/2000/svg">
<path d="M1.54971 134.107V109.97H12.3202C14.7739 109.97 16.6981 110.577 18.0928 111.791C19.4876 112.979 20.0945 114.49 19.9137 116.324C19.8104 117.357 19.5263 118.184 19.0614 118.804C18.5965 119.398 17.8991 120.082 16.9693 120.857C16.9176 120.909 16.866 120.947 16.8143 120.973C18.0283 121.593 19.0872 122.523 19.9912 123.763C20.8952 125.003 21.3472 126.191 21.3472 127.327C21.3472 129.083 20.5982 130.659 19.1001 132.054C17.6279 133.423 15.7166 134.107 13.3662 134.107H1.54971ZM4.9978 112.915V125.932C5.92763 124.796 6.92202 123.84 7.98099 123.065C9.03995 122.265 10.3185 121.412 11.8165 120.508C13.4179 119.553 14.5672 118.752 15.2646 118.106C15.9878 117.435 16.3365 116.608 16.3107 115.627C16.3107 114.852 15.9103 114.206 15.1096 113.69C14.309 113.173 13.2758 112.915 12.0102 112.915H4.9978ZM7.28362 127.637C6.32797 128.67 5.57894 129.845 5.03655 131.163H13.095C14.5156 131.163 15.6262 130.788 16.4269 130.039C17.2276 129.264 17.6279 128.36 17.6279 127.327C17.6279 126.475 17.2534 125.61 16.5044 124.731C15.7553 123.853 14.903 123.298 13.9474 123.065C13.9474 123.065 13.547 123.246 12.7463 123.608C11.9715 123.944 11.1062 124.447 10.1506 125.119C9.19492 125.764 8.23927 126.604 7.28362 127.637ZM26.1443 124.615H22.5025C22.7608 122.42 23.7423 120.586 25.447 119.114C27.1775 117.641 29.2179 116.854 31.5683 116.75C34.3836 116.621 36.4757 117.138 37.8446 118.3C39.2394 119.462 39.7688 120.857 39.4331 122.484C39.2006 123.414 38.5162 124.331 37.3797 125.235C36.2433 126.113 34.9777 126.875 33.5829 127.521C32.1882 128.167 30.8709 128.709 29.6312 129.148C28.3914 129.587 27.7715 129.807 27.7715 129.807C28.9338 130.969 30.3027 131.55 31.8782 131.55C32.7306 131.55 33.4925 131.395 34.1641 131.085C34.8614 130.775 35.4297 130.427 35.8687 130.039C36.3078 129.626 36.6565 129.238 36.9148 128.877C37.1731 128.489 37.3022 128.296 37.3022 128.296L39.6268 129.807C39.6268 129.807 39.4331 130.078 39.0456 130.62C38.6582 131.163 38.1287 131.731 37.4572 132.325C36.7856 132.893 35.9462 133.397 34.9389 133.836C33.9316 134.275 32.8081 134.495 31.5683 134.495C30.0186 134.495 28.5722 134.133 27.2291 133.41C25.886 132.687 24.7883 131.718 23.936 130.504C23.5486 129.91 23.2386 129.329 23.0062 128.761C23.0062 128.761 23.7294 128.541 25.1758 128.102C26.648 127.637 28.1848 127.082 29.7861 126.436C31.3875 125.764 32.7822 125.003 33.9703 124.15C35.1843 123.298 35.7913 122.42 35.7913 121.516C35.7913 120.87 35.3909 120.392 34.5902 120.082C33.8154 119.746 32.9114 119.604 31.8782 119.656C30.4577 119.708 29.205 120.198 28.1202 121.128C27.0354 122.058 26.3768 123.22 26.1443 124.615ZM44.2535 130.853C44.6668 131.395 45.3899 131.628 46.4231 131.55C47.1205 131.498 47.7533 131.279 48.3215 130.891C48.8897 130.478 49.5483 129.91 50.2974 129.187C50.8656 128.644 51.3305 128.231 51.6921 127.947C52.0795 127.637 52.4669 127.443 52.8544 127.366C53.9392 127.108 54.7398 127.275 55.2564 127.87C55.773 128.438 56.07 129.187 56.1475 130.117C56.2508 131.046 56.2379 131.963 56.1088 132.867C56.0054 133.745 55.9538 134.185 55.9538 134.185H52.6607C52.6607 134.185 52.7252 133.888 52.8544 133.293C53.0093 132.699 53.0739 132.157 53.0481 131.666C53.0223 131.176 52.8285 130.891 52.4669 130.814C52.2603 130.788 52.0408 130.853 51.8083 131.008C51.6017 131.163 51.2917 131.434 50.8785 131.821C50.207 132.493 49.5354 133.061 48.8639 133.526C48.1923 133.965 47.3658 134.288 46.3843 134.495C45.6095 134.649 44.7184 134.598 43.7111 134.34C42.7038 134.081 41.8256 133.565 41.0766 132.79C40.3534 131.989 40.0047 130.904 40.0305 129.535C40.0564 128.347 40.3792 127.392 40.9991 126.668C41.6448 125.945 42.4455 125.416 43.4012 125.08C44.3568 124.718 45.4803 124.434 46.7718 124.228C46.8234 124.228 46.9009 124.215 47.0042 124.189C48.5281 123.957 49.6904 123.698 50.4911 123.414C51.2917 123.104 51.8083 122.588 52.0408 121.864C52.2732 121.245 52.0537 120.638 51.3821 120.044C50.7364 119.424 49.5871 119.191 47.9341 119.346C46.7459 119.424 45.7257 119.695 44.8734 120.16C44.0469 120.625 43.3366 121.361 42.7425 122.368L40.5342 120.78C41.2057 119.643 42.1872 118.7 43.4786 117.951C44.7701 117.202 46.2552 116.789 47.9341 116.712C49.7162 116.608 51.3951 116.88 52.9706 117.525C54.5461 118.171 55.3985 119.359 55.5276 121.09C55.6309 122.278 55.3856 123.22 54.7915 123.918C54.2233 124.615 53.4872 125.119 52.5832 125.429C51.705 125.713 50.5298 125.997 49.0576 126.281C47.3787 126.591 46.1131 126.94 45.2608 127.327C44.4085 127.689 43.9177 128.296 43.7886 129.148C43.7111 129.742 43.8661 130.31 44.2535 130.853ZM69.2428 119.579C69.6561 117.9 69.8627 117.06 69.8627 117.06H73.3495V134.146H69.8627V124.964C69.8627 124.964 69.6819 125.558 69.3203 126.746C68.9845 127.908 68.4809 129.109 67.8093 130.349C67.1636 131.589 66.2984 132.635 65.2136 133.487C64.1288 134.34 62.8761 134.649 61.4555 134.417C58.7436 134.03 57.3876 131.305 57.3876 126.242C57.3876 120.121 57.3876 117.06 57.3876 117.06H60.8357V126.01C60.8357 126.01 60.8486 126.475 60.8744 127.405C60.9261 128.334 61.081 129.187 61.3393 129.962C61.5976 130.736 62.0109 131.15 62.5791 131.201C63.5606 131.305 64.4904 130.711 65.3686 129.419C66.2725 128.102 67.0474 126.552 67.6931 124.77C68.3388 122.962 68.8554 121.232 69.2428 119.579ZM83.3911 120.625C83.0295 120.521 82.8487 120.47 82.8487 120.47V129.148C82.8487 130.078 83.0941 130.736 83.5849 131.124C84.0756 131.408 84.7601 131.55 85.6382 131.55C86.129 131.55 86.4776 131.524 86.6843 131.473L87.7691 131.279V134.301L86.9942 134.417C86.4518 134.469 85.9998 134.495 85.6382 134.495C83.8561 134.495 82.4097 134.081 81.299 133.255C80.0593 132.325 79.4394 130.956 79.4394 129.148V119.811C78.7162 119.708 77.9801 119.669 77.2311 119.695C76.5079 119.721 75.8751 119.785 75.3327 119.889C74.7903 119.966 74.5191 120.005 74.5191 120.005V117.099C75.888 116.505 76.9599 115.756 77.7347 114.852C78.5354 113.922 79.0907 113.005 79.4007 112.101C79.7106 111.197 79.8785 110.397 79.9043 109.699C79.956 108.976 79.9818 108.614 79.9818 108.614H83.0812C83.0812 110.655 82.7067 112.398 81.9577 113.845C81.2345 115.265 80.3046 116.35 79.1682 117.099C79.1682 117.099 79.646 117.112 80.6017 117.138C81.5832 117.164 82.5905 117.319 83.6236 117.603C84.6826 117.861 85.5349 118.3 86.1806 118.92V122.291C85.6899 121.826 85.1862 121.464 84.6697 121.206C84.1789 120.922 83.7527 120.728 83.3911 120.625ZM104.174 117.06V121.554V134.185C104.174 137.284 103.322 139.376 101.617 140.461C99.9386 141.572 97.9756 142.114 95.7286 142.088C94.5663 142.062 93.4944 141.856 92.5129 141.468C91.5573 141.107 90.7437 140.668 90.0721 140.151C89.4264 139.66 88.9099 139.182 88.5224 138.717C88.135 138.253 87.9413 138.02 87.9413 138.02L90.1496 136.16C90.1496 136.16 90.2917 136.328 90.5758 136.664C90.8599 137 91.2344 137.349 91.6993 137.71C92.1642 138.098 92.7454 138.433 93.4428 138.717C94.1401 139.002 94.9021 139.144 95.7286 139.144C96.9683 139.144 98.1048 138.769 99.1379 138.02C100.197 137.297 100.726 136.018 100.726 134.185V134.146V124.964C100.726 124.964 100.546 125.558 100.184 126.746C99.8482 127.908 99.3445 129.109 98.673 130.349C98.0273 131.589 97.162 132.635 96.0773 133.487C94.9925 134.34 93.7269 134.662 92.2805 134.456C89.5943 134.043 88.2512 131.305 88.2512 126.242V117.06H91.6993V126.01C91.6993 126.01 91.7122 126.475 91.7381 127.405C91.7897 128.334 91.9447 129.187 92.203 129.962C92.4613 130.736 92.8745 131.15 93.4428 131.201C94.4242 131.305 95.3541 130.711 96.2322 129.419C97.1104 128.102 97.8723 126.552 98.518 124.77C99.1637 122.962 99.6932 121.232 100.106 119.579C100.52 117.9 100.726 117.06 100.726 117.06H104.174ZM122.002 134.068L113.672 109.932H117.275L123.512 128.102L129.556 109.932H133.043L139.126 128.102L145.325 109.932H148.928L140.598 134.068H137.576L131.3 115.511L125.023 134.068H122.002ZM160.691 133.332C159.296 134.133 157.785 134.533 156.158 134.533C154.505 134.533 152.968 134.133 151.548 133.332C150.153 132.532 149.042 131.46 148.216 130.117C147.415 128.748 147.015 127.263 147.015 125.661C147.015 124.034 147.415 122.549 148.216 121.206C149.042 119.837 150.153 118.765 151.548 117.99C152.968 117.189 154.505 116.789 156.158 116.789C157.785 116.789 159.296 117.189 160.691 117.99C162.086 118.765 163.183 119.837 163.984 121.206C164.811 122.575 165.224 124.06 165.224 125.661C165.224 127.263 164.811 128.748 163.984 130.117C163.183 131.46 162.086 132.532 160.691 133.332ZM160.149 121.438C159.038 120.276 157.708 119.695 156.158 119.695C154.582 119.695 153.239 120.276 152.129 121.438C151.018 122.601 150.463 124.008 150.463 125.661C150.463 127.288 151.018 128.683 152.129 129.845C153.239 131.008 154.582 131.589 156.158 131.589C157.708 131.589 159.038 131.008 160.149 129.845C161.259 128.683 161.814 127.288 161.814 125.661C161.814 124.008 161.259 122.601 160.149 121.438ZM180.867 123.22H177.38V122.872C177.38 121.141 177.044 120.237 176.373 120.16C175.572 120.082 174.784 120.702 174.009 122.019C173.234 123.311 172.55 124.861 171.956 126.668C171.362 128.451 170.858 130.168 170.445 131.821C170.032 133.474 169.825 134.301 169.825 134.301H166.377V117.215H169.825V126.087C169.825 126.087 169.98 125.545 170.29 124.46C170.626 123.375 171.078 122.252 171.646 121.09C172.24 119.927 172.989 118.933 173.893 118.106C174.797 117.254 175.843 116.867 177.031 116.944C178.323 117.022 179.278 117.654 179.898 118.842C180.544 120.005 180.867 121.296 180.867 122.717V123.22ZM182.013 134.185V110.358H185.461V134.185H182.013ZM201.383 123.337C200.969 122.252 200.259 121.374 199.252 120.702C198.27 120.005 197.198 119.656 196.036 119.656C194.46 119.656 193.092 120.237 191.929 121.399C190.793 122.562 190.225 123.969 190.225 125.622C190.225 127.353 190.78 128.799 191.891 129.962C193.001 131.098 194.46 131.55 196.268 131.318C197.018 131.24 197.663 130.995 198.206 130.582C198.774 130.142 199.42 129.548 200.143 128.799C200.737 128.154 201.228 127.676 201.615 127.366C202.028 127.056 202.467 126.914 202.932 126.94C203.836 126.94 204.495 127.288 204.908 127.986C205.321 128.657 205.554 129.445 205.605 130.349C205.683 131.253 205.67 132.118 205.567 132.945C205.489 133.771 205.45 134.185 205.45 134.185H202.08C202.08 134.185 202.132 133.875 202.235 133.255C202.338 132.609 202.377 132.041 202.351 131.55C202.325 131.059 202.157 130.827 201.847 130.853C201.46 130.904 201.008 131.24 200.491 131.86C199.846 132.557 199.187 133.139 198.516 133.603C197.87 134.043 197.043 134.34 196.036 134.495C194.306 134.753 192.717 134.495 191.271 133.72C189.824 132.919 188.688 131.783 187.861 130.31C187.035 128.812 186.622 127.25 186.622 125.622C186.622 124.021 187.035 122.523 187.861 121.128C188.688 119.708 189.798 118.597 191.193 117.796C192.588 116.996 194.112 116.647 195.765 116.75C197.934 116.88 199.807 117.706 201.383 119.23V110.358H204.831V123.337H201.383Z" fill="white"/>
<path d="M1.54971 134.107V109.97H12.3202C14.7739 109.97 16.6981 110.577 18.0928 111.791C19.4876 112.979 20.0945 114.49 19.9137 116.324C19.8104 117.357 19.5263 118.184 19.0614 118.804C18.5965 119.398 17.8991 120.082 16.9693 120.857C16.9176 120.909 16.866 120.947 16.8143 120.973C18.0283 121.593 19.0872 122.523 19.9912 123.763C20.8952 125.003 21.3472 126.191 21.3472 127.327C21.3472 129.083 20.5982 130.659 19.1001 132.054C17.6279 133.423 15.7166 134.107 13.3662 134.107H1.54971ZM4.9978 112.915V125.932C5.92763 124.796 6.92202 123.84 7.98099 123.065C9.03995 122.265 10.3185 121.412 11.8165 120.508C13.4179 119.553 14.5672 118.752 15.2646 118.106C15.9878 117.435 16.3365 116.608 16.3107 115.627C16.3107 114.852 15.9103 114.206 15.1096 113.69C14.309 113.173 13.2758 112.915 12.0102 112.915H4.9978ZM7.28362 127.637C6.32797 128.67 5.57894 129.845 5.03655 131.163H13.095C14.5156 131.163 15.6262 130.788 16.4269 130.039C17.2276 129.264 17.6279 128.36 17.6279 127.327C17.6279 126.475 17.2534 125.61 16.5044 124.731C15.7553 123.853 14.903 123.298 13.9474 123.065C13.9474 123.065 13.547 123.246 12.7463 123.608C11.9715 123.944 11.1062 124.447 10.1506 125.119C9.19492 125.764 8.23927 126.604 7.28362 127.637ZM26.1443 124.615H22.5025C22.7608 122.42 23.7423 120.586 25.447 119.114C27.1775 117.641 29.2179 116.854 31.5683 116.75C34.3836 116.621 36.4757 117.138 37.8446 118.3C39.2394 119.462 39.7688 120.857 39.4331 122.484C39.2006 123.414 38.5162 124.331 37.3797 125.235C36.2433 126.113 34.9777 126.875 33.5829 127.521C32.1882 128.167 30.8709 128.709 29.6312 129.148C28.3914 129.587 27.7715 129.807 27.7715 129.807C28.9338 130.969 30.3027 131.55 31.8782 131.55C32.7306 131.55 33.4925 131.395 34.1641 131.085C34.8614 130.775 35.4297 130.427 35.8687 130.039C36.3078 129.626 36.6565 129.238 36.9148 128.877C37.1731 128.489 37.3022 128.296 37.3022 128.296L39.6268 129.807C39.6268 129.807 39.4331 130.078 39.0456 130.62C38.6582 131.163 38.1287 131.731 37.4572 132.325C36.7856 132.893 35.9462 133.397 34.9389 133.836C33.9316 134.275 32.8081 134.495 31.5683 134.495C30.0186 134.495 28.5722 134.133 27.2291 133.41C25.886 132.687 24.7883 131.718 23.936 130.504C23.5486 129.91 23.2386 129.329 23.0062 128.761C23.0062 128.761 23.7294 128.541 25.1758 128.102C26.648 127.637 28.1848 127.082 29.7861 126.436C31.3875 125.764 32.7822 125.003 33.9703 124.15C35.1843 123.298 35.7913 122.42 35.7913 121.516C35.7913 120.87 35.3909 120.392 34.5902 120.082C33.8154 119.746 32.9114 119.604 31.8782 119.656C30.4577 119.708 29.205 120.198 28.1202 121.128C27.0354 122.058 26.3768 123.22 26.1443 124.615ZM44.2535 130.853C44.6668 131.395 45.3899 131.628 46.4231 131.55C47.1205 131.498 47.7533 131.279 48.3215 130.891C48.8897 130.478 49.5483 129.91 50.2974 129.187C50.8656 128.644 51.3305 128.231 51.6921 127.947C52.0795 127.637 52.4669 127.443 52.8544 127.366C53.9392 127.108 54.7398 127.275 55.2564 127.87C55.773 128.438 56.07 129.187 56.1475 130.117C56.2508 131.046 56.2379 131.963 56.1088 132.867C56.0054 133.745 55.9538 134.185 55.9538 134.185H52.6607C52.6607 134.185 52.7252 133.888 52.8544 133.293C53.0093 132.699 53.0739 132.157 53.0481 131.666C53.0223 131.176 52.8285 130.891 52.4669 130.814C52.2603 130.788 52.0408 130.853 51.8083 131.008C51.6017 131.163 51.2917 131.434 50.8785 131.821C50.207 132.493 49.5354 133.061 48.8639 133.526C48.1923 133.965 47.3658 134.288 46.3843 134.495C45.6095 134.649 44.7184 134.598 43.7111 134.34C42.7038 134.081 41.8256 133.565 41.0766 132.79C40.3534 131.989 40.0047 130.904 40.0305 129.535C40.0564 128.347 40.3792 127.392 40.9991 126.668C41.6448 125.945 42.4455 125.416 43.4012 125.08C44.3568 124.718 45.4803 124.434 46.7718 124.228C46.8234 124.228 46.9009 124.215 47.0042 124.189C48.5281 123.957 49.6904 123.698 50.4911 123.414C51.2917 123.104 51.8083 122.588 52.0408 121.864C52.2732 121.245 52.0537 120.638 51.3821 120.044C50.7364 119.424 49.5871 119.191 47.9341 119.346C46.7459 119.424 45.7257 119.695 44.8734 120.16C44.0469 120.625 43.3366 121.361 42.7425 122.368L40.5342 120.78C41.2057 119.643 42.1872 118.7 43.4786 117.951C44.7701 117.202 46.2552 116.789 47.9341 116.712C49.7162 116.608 51.3951 116.88 52.9706 117.525C54.5461 118.171 55.3985 119.359 55.5276 121.09C55.6309 122.278 55.3856 123.22 54.7915 123.918C54.2233 124.615 53.4872 125.119 52.5832 125.429C51.705 125.713 50.5298 125.997 49.0576 126.281C47.3787 126.591 46.1131 126.94 45.2608 127.327C44.4085 127.689 43.9177 128.296 43.7886 129.148C43.7111 129.742 43.8661 130.31 44.2535 130.853ZM69.2428 119.579C69.6561 117.9 69.8627 117.06 69.8627 117.06H73.3495V134.146H69.8627V124.964C69.8627 124.964 69.6819 125.558 69.3203 126.746C68.9845 127.908 68.4809 129.109 67.8093 130.349C67.1636 131.589 66.2984 132.635 65.2136 133.487C64.1288 134.34 62.8761 134.649 61.4555 134.417C58.7436 134.03 57.3876 131.305 57.3876 126.242C57.3876 120.121 57.3876 117.06 57.3876 117.06H60.8357V126.01C60.8357 126.01 60.8486 126.475 60.8744 127.405C60.9261 128.334 61.081 129.187 61.3393 129.962C61.5976 130.736 62.0109 131.15 62.5791 131.201C63.5606 131.305 64.4904 130.711 65.3686 129.419C66.2725 128.102 67.0474 126.552 67.6931 124.77C68.3388 122.962 68.8554 121.232 69.2428 119.579ZM83.3911 120.625C83.0295 120.521 82.8487 120.47 82.8487 120.47V129.148C82.8487 130.078 83.0941 130.736 83.5849 131.124C84.0756 131.408 84.7601 131.55 85.6382 131.55C86.129 131.55 86.4776 131.524 86.6843 131.473L87.7691 131.279V134.301L86.9942 134.417C86.4518 134.469 85.9998 134.495 85.6382 134.495C83.8561 134.495 82.4097 134.081 81.299 133.255C80.0593 132.325 79.4394 130.956 79.4394 129.148V119.811C78.7162 119.708 77.9801 119.669 77.2311 119.695C76.5079 119.721 75.8751 119.785 75.3327 119.889C74.7903 119.966 74.5191 120.005 74.5191 120.005V117.099C75.888 116.505 76.9599 115.756 77.7347 114.852C78.5354 113.922 79.0907 113.005 79.4007 112.101C79.7106 111.197 79.8785 110.397 79.9043 109.699C79.956 108.976 79.9818 108.614 79.9818 108.614H83.0812C83.0812 110.655 82.7067 112.398 81.9577 113.845C81.2345 115.265 80.3046 116.35 79.1682 117.099C79.1682 117.099 79.646 117.112 80.6017 117.138C81.5832 117.164 82.5905 117.319 83.6236 117.603C84.6826 117.861 85.5349 118.3 86.1806 118.92V122.291C85.6899 121.826 85.1862 121.464 84.6697 121.206C84.1789 120.922 83.7527 120.728 83.3911 120.625ZM104.174 117.06V121.554V134.185C104.174 137.284 103.322 139.376 101.617 140.461C99.9386 141.572 97.9756 142.114 95.7286 142.088C94.5663 142.062 93.4944 141.856 92.5129 141.468C91.5573 141.107 90.7437 140.668 90.0721 140.151C89.4264 139.66 88.9099 139.182 88.5224 138.717C88.135 138.253 87.9413 138.02 87.9413 138.02L90.1496 136.16C90.1496 136.16 90.2917 136.328 90.5758 136.664C90.8599 137 91.2344 137.349 91.6993 137.71C92.1642 138.098 92.7454 138.433 93.4428 138.717C94.1401 139.002 94.9021 139.144 95.7286 139.144C96.9683 139.144 98.1048 138.769 99.1379 138.02C100.197 137.297 100.726 136.018 100.726 134.185V134.146V124.964C100.726 124.964 100.546 125.558 100.184 126.746C99.8482 127.908 99.3445 129.109 98.673 130.349C98.0273 131.589 97.162 132.635 96.0773 133.487C94.9925 134.34 93.7269 134.662 92.2805 134.456C89.5943 134.043 88.2512 131.305 88.2512 126.242V117.06H91.6993V126.01C91.6993 126.01 91.7122 126.475 91.7381 127.405C91.7897 128.334 91.9447 129.187 92.203 129.962C92.4613 130.736 92.8745 131.15 93.4428 131.201C94.4242 131.305 95.3541 130.711 96.2322 129.419C97.1104 128.102 97.8723 126.552 98.518 124.77C99.1637 122.962 99.6932 121.232 100.106 119.579C100.52 117.9 100.726 117.06 100.726 117.06H104.174ZM122.002 134.068L113.672 109.932H117.275L123.512 128.102L129.556 109.932H133.043L139.126 128.102L145.325 109.932H148.928L140.598 134.068H137.576L131.3 115.511L125.023 134.068H122.002ZM160.691 133.332C159.296 134.133 157.785 134.533 156.158 134.533C154.505 134.533 152.968 134.133 151.548 133.332C150.153 132.532 149.042 131.46 148.216 130.117C147.415 128.748 147.015 127.263 147.015 125.661C147.015 124.034 147.415 122.549 148.216 121.206C149.042 119.837 150.153 118.765 151.548 117.99C152.968 117.189 154.505 116.789 156.158 116.789C157.785 116.789 159.296 117.189 160.691 117.99C162.086 118.765 163.183 119.837 163.984 121.206C164.811 122.575 165.224 124.06 165.224 125.661C165.224 127.263 164.811 128.748 163.984 130.117C163.183 131.46 162.086 132.532 160.691 133.332ZM160.149 121.438C159.038 120.276 157.708 119.695 156.158 119.695C154.582 119.695 153.239 120.276 152.129 121.438C151.018 122.601 150.463 124.008 150.463 125.661C150.463 127.288 151.018 128.683 152.129 129.845C153.239 131.008 154.582 131.589 156.158 131.589C157.708 131.589 159.038 131.008 160.149 129.845C161.259 128.683 161.814 127.288 161.814 125.661C161.814 124.008 161.259 122.601 160.149 121.438ZM180.867 123.22H177.38V122.872C177.38 121.141 177.044 120.237 176.373 120.16C175.572 120.082 174.784 120.702 174.009 122.019C173.234 123.311 172.55 124.861 171.956 126.668C171.362 128.451 170.858 130.168 170.445 131.821C170.032 133.474 169.825 134.301 169.825 134.301H166.377V117.215H169.825V126.087C169.825 126.087 169.98 125.545 170.29 124.46C170.626 123.375 171.078 122.252 171.646 121.09C172.24 119.927 172.989 118.933 173.893 118.106C174.797 117.254 175.843 116.867 177.031 116.944C178.323 117.022 179.278 117.654 179.898 118.842C180.544 120.005 180.867 121.296 180.867 122.717V123.22ZM182.013 134.185V110.358H185.461V134.185H182.013ZM201.383 123.337C200.969 122.252 200.259 121.374 199.252 120.702C198.27 120.005 197.198 119.656 196.036 119.656C194.46 119.656 193.092 120.237 191.929 121.399C190.793 122.562 190.225 123.969 190.225 125.622C190.225 127.353 190.78 128.799 191.891 129.962C193.001 131.098 194.46 131.55 196.268 131.318C197.018 131.24 197.663 130.995 198.206 130.582C198.774 130.142 199.42 129.548 200.143 128.799C200.737 128.154 201.228 127.676 201.615 127.366C202.028 127.056 202.467 126.914 202.932 126.94C203.836 126.94 204.495 127.288 204.908 127.986C205.321 128.657 205.554 129.445 205.605 130.349C205.683 131.253 205.67 132.118 205.567 132.945C205.489 133.771 205.45 134.185 205.45 134.185H202.08C202.08 134.185 202.132 133.875 202.235 133.255C202.338 132.609 202.377 132.041 202.351 131.55C202.325 131.059 202.157 130.827 201.847 130.853C201.46 130.904 201.008 131.24 200.491 131.86C199.846 132.557 199.187 133.139 198.516 133.603C197.87 134.043 197.043 134.34 196.036 134.495C194.306 134.753 192.717 134.495 191.271 133.72C189.824 132.919 188.688 131.783 187.861 130.31C187.035 128.812 186.622 127.25 186.622 125.622C186.622 124.021 187.035 122.523 187.861 121.128C188.688 119.708 189.798 118.597 191.193 117.796C192.588 116.996 194.112 116.647 195.765 116.75C197.934 116.88 199.807 117.706 201.383 119.23V110.358H204.831V123.337H201.383Z" fill="#3D1FA8"/>
<path d="M26.3919 157.871V148.494H32.2825V149.603H26.9598L27.5277 149.022V153.328L26.9598 152.747H32.0447V153.83H26.9598L27.5277 153.248V157.871H26.3919ZM35.8719 157.871L39.253 148.494H40.7851L44.1663 157.871H42.9247L41.987 155.203H38.0511L37.1134 157.871H35.8719ZM38.4341 154.094H41.604L40.0191 149.484L38.4341 154.094ZM49.0853 157.871V148.494H50.6702L53.6683 156.63L56.6533 148.494H58.2382V157.871H57.1023V150.607L54.4212 157.871H52.9023L50.2211 150.607V157.871H49.0853ZM64.1079 157.871V148.494H65.2438V157.871H64.1079ZM71.366 157.871V148.494H72.5018V157.343L71.9339 156.762H77.1905V157.871H71.366ZM82.631 157.871V154.041L79.3159 148.494H80.6631L83.199 152.879L85.7348 148.494H87.082L83.7669 154.041V157.871H82.631ZM98.9183 157.871V148.494H100.054V157.343L99.4863 156.762H104.743V157.871H98.9183ZM113.279 158.082C112.389 158.082 111.623 157.889 110.981 157.501C110.347 157.105 109.858 156.542 109.514 155.811C109.171 155.08 108.999 154.208 108.999 153.196C108.999 152.183 109.171 151.311 109.514 150.58C109.858 149.841 110.347 149.273 110.981 148.877C111.623 148.48 112.389 148.282 113.279 148.282C114.177 148.282 114.943 148.48 115.577 148.877C116.22 149.273 116.713 149.841 117.056 150.58C117.399 151.311 117.571 152.183 117.571 153.196C117.571 154.208 117.399 155.08 117.056 155.811C116.713 156.542 116.22 157.105 115.577 157.501C114.943 157.889 114.177 158.082 113.279 158.082ZM113.279 156.973C113.93 156.973 114.485 156.823 114.943 156.524C115.409 156.225 115.766 155.793 116.013 155.23C116.259 154.666 116.382 153.988 116.382 153.196C116.382 152.403 116.259 151.725 116.013 151.162C115.766 150.589 115.409 150.153 114.943 149.854C114.485 149.546 113.93 149.392 113.279 149.392C112.636 149.392 112.081 149.546 111.614 149.854C111.157 150.153 110.804 150.589 110.558 151.162C110.311 151.725 110.188 152.403 110.188 153.196C110.188 153.988 110.311 154.666 110.558 155.23C110.804 155.793 111.157 156.225 111.614 156.524C112.081 156.823 112.636 156.973 113.279 156.973ZM126.424 158.082C125.702 158.082 125.072 157.942 124.535 157.66C124.007 157.378 123.597 156.977 123.307 156.458C123.025 155.93 122.884 155.309 122.884 154.596V148.48H124.02V154.596C124.02 155.353 124.227 155.938 124.641 156.352C125.063 156.766 125.658 156.973 126.424 156.973C127.181 156.973 127.766 156.766 128.18 156.352C128.603 155.938 128.814 155.353 128.814 154.596V148.48H129.95V154.596C129.95 155.309 129.805 155.93 129.514 156.458C129.232 156.977 128.827 157.378 128.299 157.66C127.771 157.942 127.146 158.082 126.424 158.082ZM136.08 157.871V148.494H137.691L142.327 156.735V148.494H143.463V157.871H141.772L137.216 149.788V157.871H136.08ZM152.979 158.082C152.098 158.082 151.346 157.871 150.72 157.448C150.095 157.026 149.615 156.449 149.281 155.718C148.955 154.979 148.792 154.138 148.792 153.196C148.792 152.253 148.959 151.413 149.294 150.673C149.629 149.933 150.108 149.352 150.734 148.93C151.368 148.498 152.125 148.282 153.005 148.282C153.754 148.282 154.383 148.419 154.894 148.692C155.413 148.965 155.823 149.335 156.122 149.801C156.43 150.268 156.642 150.792 156.756 151.373L155.568 151.452C155.453 150.845 155.198 150.352 154.802 149.973C154.405 149.585 153.807 149.392 153.005 149.392C152.292 149.392 151.711 149.568 151.262 149.92C150.822 150.272 150.496 150.739 150.285 151.32C150.082 151.892 149.981 152.518 149.981 153.196C149.981 153.909 150.086 154.552 150.298 155.124C150.509 155.687 150.839 156.136 151.288 156.471C151.737 156.806 152.31 156.973 153.005 156.973C153.56 156.973 154.04 156.85 154.445 156.603C154.85 156.348 155.163 156.009 155.383 155.586C155.603 155.164 155.717 154.706 155.726 154.213H153.032V153.13H156.783V157.871H155.937L155.858 155.705L156.017 155.89C155.911 156.313 155.708 156.691 155.409 157.026C155.11 157.352 154.749 157.611 154.326 157.805C153.912 157.99 153.463 158.082 152.979 158.082ZM162.359 157.871V148.494H168.249V149.603H163.495V152.628H168.091V153.711H163.495V156.762H168.355V157.871H162.359Z" fill="white"/>
<path d="M26.3919 157.871V148.494H32.2825V149.603H26.9598L27.5277 149.022V153.328L26.9598 152.747H32.0447V153.83H26.9598L27.5277 153.248V157.871H26.3919ZM35.8719 157.871L39.253 148.494H40.7851L44.1663 157.871H42.9247L41.987 155.203H38.0511L37.1134 157.871H35.8719ZM38.4341 154.094H41.604L40.0191 149.484L38.4341 154.094ZM49.0853 157.871V148.494H50.6702L53.6683 156.63L56.6533 148.494H58.2382V157.871H57.1023V150.607L54.4212 157.871H52.9023L50.2211 150.607V157.871H49.0853ZM64.1079 157.871V148.494H65.2438V157.871H64.1079ZM71.366 157.871V148.494H72.5018V157.343L71.9339 156.762H77.1905V157.871H71.366ZM82.631 157.871V154.041L79.3159 148.494H80.6631L83.199 152.879L85.7348 148.494H87.082L83.7669 154.041V157.871H82.631ZM98.9183 157.871V148.494H100.054V157.343L99.4863 156.762H104.743V157.871H98.9183ZM113.279 158.082C112.389 158.082 111.623 157.889 110.981 157.501C110.347 157.105 109.858 156.542 109.514 155.811C109.171 155.08 108.999 154.208 108.999 153.196C108.999 152.183 109.171 151.311 109.514 150.58C109.858 149.841 110.347 149.273 110.981 148.877C111.623 148.48 112.389 148.282 113.279 148.282C114.177 148.282 114.943 148.48 115.577 148.877C116.22 149.273 116.713 149.841 117.056 150.58C117.399 151.311 117.571 152.183 117.571 153.196C117.571 154.208 117.399 155.08 117.056 155.811C116.713 156.542 116.22 157.105 115.577 157.501C114.943 157.889 114.177 158.082 113.279 158.082ZM113.279 156.973C113.93 156.973 114.485 156.823 114.943 156.524C115.409 156.225 115.766 155.793 116.013 155.23C116.259 154.666 116.382 153.988 116.382 153.196C116.382 152.403 116.259 151.725 116.013 151.162C115.766 150.589 115.409 150.153 114.943 149.854C114.485 149.546 113.93 149.392 113.279 149.392C112.636 149.392 112.081 149.546 111.614 149.854C111.157 150.153 110.804 150.589 110.558 151.162C110.311 151.725 110.188 152.403 110.188 153.196C110.188 153.988 110.311 154.666 110.558 155.23C110.804 155.793 111.157 156.225 111.614 156.524C112.081 156.823 112.636 156.973 113.279 156.973ZM126.424 158.082C125.702 158.082 125.072 157.942 124.535 157.66C124.007 157.378 123.597 156.977 123.307 156.458C123.025 155.93 122.884 155.309 122.884 154.596V148.48H124.02V154.596C124.02 155.353 124.227 155.938 124.641 156.352C125.063 156.766 125.658 156.973 126.424 156.973C127.181 156.973 127.766 156.766 128.18 156.352C128.603 155.938 128.814 155.353 128.814 154.596V148.48H129.95V154.596C129.95 155.309 129.805 155.93 129.514 156.458C129.232 156.977 128.827 157.378 128.299 157.66C127.771 157.942 127.146 158.082 126.424 158.082ZM136.08 157.871V148.494H137.691L142.327 156.735V148.494H143.463V157.871H141.772L137.216 149.788V157.871H136.08ZM152.979 158.082C152.098 158.082 151.346 157.871 150.72 157.448C150.095 157.026 149.615 156.449 149.281 155.718C148.955 154.979 148.792 154.138 148.792 153.196C148.792 152.253 148.959 151.413 149.294 150.673C149.629 149.933 150.108 149.352 150.734 148.93C151.368 148.498 152.125 148.282 153.005 148.282C153.754 148.282 154.383 148.419 154.894 148.692C155.413 148.965 155.823 149.335 156.122 149.801C156.43 150.268 156.642 150.792 156.756 151.373L155.568 151.452C155.453 150.845 155.198 150.352 154.802 149.973C154.405 149.585 153.807 149.392 153.005 149.392C152.292 149.392 151.711 149.568 151.262 149.92C150.822 150.272 150.496 150.739 150.285 151.32C150.082 151.892 149.981 152.518 149.981 153.196C149.981 153.909 150.086 154.552 150.298 155.124C150.509 155.687 150.839 156.136 151.288 156.471C151.737 156.806 152.31 156.973 153.005 156.973C153.56 156.973 154.04 156.85 154.445 156.603C154.85 156.348 155.163 156.009 155.383 155.586C155.603 155.164 155.717 154.706 155.726 154.213H153.032V153.13H156.783V157.871H155.937L155.858 155.705L156.017 155.89C155.911 156.313 155.708 156.691 155.409 157.026C155.11 157.352 154.749 157.611 154.326 157.805C153.912 157.99 153.463 158.082 152.979 158.082ZM162.359 157.871V148.494H168.249V149.603H163.495V152.628H168.091V153.711H163.495V156.762H168.355V157.871H162.359Z" fill="#3D1FA8"/>
<path d="M95.4511 0.0680022C95.5914 0.0444775 95.5328 0.049624 95.6419 0.0439425C115.909 -1.01334 132.819 17.1724 133.215 36.8779C133.293 40.711 133.252 44.5533 133.248 48.396C133.274 56.3765 133.256 64.3571 133.193 72.3369L133.262 91.8384C133.255 94.6525 133.278 97.4949 133.214 100.308C133.204 100.782 133.151 101.063 132.828 101.403C131.944 101.679 126.151 101.594 124.773 101.613C116.147 101.736 107.468 101.61 98.8392 101.74C96.9378 101.744 95.1087 101.661 93.2219 101.646L78.7699 101.656C74.7481 101.7 70.726 101.702 66.7042 101.66C65.2227 101.644 62.8692 101.763 61.4998 101.491C60.9947 101.01 61.094 97.8509 61.091 97.0502C61.0869 94.956 61.1007 92.861 61.1325 90.7669L61.1376 76.6947C61.0838 68.043 61.074 59.3912 61.1084 50.7404L61.1237 42.0617C61.1489 37.1644 60.9976 35.2614 62.0581 30.3002C63.4235 24.0836 66.2716 18.289 70.3596 13.4103C74.7045 8.16101 79.7349 4.44421 86.144 2.08624C89.6931 0.780487 91.6721 0.427441 95.4511 0.0680022ZM126.797 93.5508C127.174 92.1437 126.985 91.2099 127.007 89.8419C127.051 87.1752 127.026 85.7015 125.926 83.2106C124.873 80.8271 123.765 78.6566 121.742 76.8918C120.074 75.427 118.004 74.3005 116.185 73.0266C111.623 70.0297 112.098 64.4956 113.612 59.9434C113.731 59.583 114.31 58.9092 114.061 58.5603C113.322 57.5288 109.046 57.0796 109.039 55.6131C109.244 55.3006 109.127 55.392 109.464 55.2455C110.337 55.2598 111.026 55.8545 111.845 56.0782C114.606 56.8328 117.6 57.8918 120.485 57.8306C121.861 57.8013 122.734 57.0556 122.665 55.6788C122.657 54.9837 122.51 54.1501 122.757 53.4959C122.922 53.0866 123.767 52.4696 123.375 52.1199C123.029 51.811 122.36 51.66 122.101 51.3316C122.19 50.9223 123.545 50.4687 123.994 50.1323C122.961 46.3618 124.252 47.9779 125.854 45.791C125.246 44.2315 123.506 43.1674 122.968 41.3182C121.46 36.1315 123.175 31.0151 118.432 26.994C118.334 27.8101 118.374 28.6508 118.289 29.4933C117.958 32.8139 116.906 35.3587 114.232 37.4803C112.811 38.608 111.162 39.486 109.816 40.6583C109.164 41.2259 108.651 42.5973 107.861 43.1375C107.439 43.4263 106.776 43.7241 106.269 43.6179C104.686 43.2862 103.582 41.4211 101.724 42.5583C101.158 42.9043 100.553 43.7952 100.448 44.4585C100.312 45.3205 100.536 46.1626 101.071 46.8631C101.691 47.675 102.461 48.2531 103.492 48.4201C104.066 48.5131 105.314 48.4398 105.653 48.8362C105.892 49.1167 106.076 49.8722 106.188 50.2246C106.758 52.0134 107.16 54.1119 106.807 55.9841C106.507 57.5776 105.612 59.1187 105.169 60.7654C104.049 64.9342 104.456 68.7815 106.305 72.6813C106.532 73.1607 107.089 74.5597 107.366 74.9343C107.934 75.7022 109.122 76.74 109.851 77.428C112.952 80.3548 116.023 82.6984 118.333 86.4073C119.43 88.1694 120.189 89.8934 120.907 91.8535C121.243 92.6684 121.369 93.5685 121.682 94.3781C121.801 94.6862 122.448 94.9401 122.744 94.9507C124.064 94.9978 126.23 95.0501 126.797 93.5508ZM75.628 94.9498C76.3108 94.9454 77.0153 94.9552 77.6939 94.8966L77.7077 94.7829C77.8251 93.7754 77.7287 92.7651 77.8546 91.7212C78.3448 87.6563 80.18 85.2523 83.2165 82.7579C86.8434 79.7769 91.1814 78.7906 91.7257 73.4536C92.0078 70.6893 91.1989 66.9812 92.2035 64.4752C95.1536 57.116 101.415 58.6615 101.201 48.9063C100.003 47.8942 99.2149 46.8918 99.0768 45.2508C98.9837 44.1593 99.336 43.0767 100.053 42.2489C101.036 41.1047 102.692 40.6701 104.148 41.0313C105.216 41.2965 106.415 43.0106 107.389 41.7362C107.925 41.085 108.646 39.8798 109.209 39.4033C110.366 38.4249 111.83 37.5777 113.044 36.6693C116.564 34.035 117.278 30.4376 116.991 26.2816C116.984 26.1897 116.977 26.0977 116.968 26.0059C116.138 25.4288 115.682 25.1792 114.731 24.8428C114.349 28.4861 113.656 30.5018 110.894 33.0584C106.364 37.2511 97.5058 34.6603 96.6784 42.32C96.5457 43.5478 96.6161 44.7581 96.6397 45.9879C96.8702 50.3533 96.4297 53.9317 92.7864 56.8719C91.7271 57.7267 90.5138 58.4795 89.4347 59.3655C86.3094 61.9319 85.0929 64.3713 84.5579 68.335C83.9496 72.8411 85.3035 78.5953 81.3781 81.7796C79.9108 83.0073 78.1011 83.4618 76.3751 84.1773C72.5561 85.761 70.1607 89.3616 69.7405 93.4194C69.6235 94.5495 69.8351 94.9614 71.0207 94.9507C72.5497 94.9374 74.102 94.9978 75.628 94.9498ZM98.3951 5.3812C113.5 6.33283 126.09 18.93 128.007 33.8192C128.291 36.0132 128.205 38.079 128.401 40.2193C129.253 40.2564 130.862 40.405 131.634 40.1438C132.048 39.6782 131.83 35.8525 131.765 35.069C130.374 18.2697 116.841 2.70516 99.5751 1.49289C98.7586 1.43554 97.1196 1.35928 96.3456 1.492C87.1818 1.75476 79.2083 5.98973 72.985 12.5813C67.336 18.571 63.7651 26.2197 62.8004 34.3959C62.6862 35.3856 62.1985 38.94 62.8498 39.8455C63.0057 40.0623 65.6898 40.1191 66.0949 39.6579C66.2611 38.7803 66.2664 37.3062 66.3288 36.3514C66.4354 34.8704 66.6298 33.3969 66.9109 31.9389C68.4686 23.7883 73.6096 15.8889 80.4256 11.1437C85.4983 7.61222 92.1261 5.07484 98.3951 5.3812ZM68.5656 92.5121C69.1771 89.0509 70.6471 86.1969 73.5935 84.2164C77.115 81.8941 81.9992 82.045 82.6925 76.8137C83.2853 72.3413 82.577 68.5747 84.1336 64.2355C85.7488 58.998 91.0412 57.622 93.9213 53.6707C95.7544 51.1558 95.2728 46.9413 95.2292 44.0473C95.2517 37.9928 98.3983 35.6546 103.947 34.6471C108.556 33.8102 112.529 31.2058 113.246 26.2828C113.676 23.3238 111.225 23.7299 108.92 23.7377C108.004 27.1933 106.734 29.2976 103.588 31.2354C100.527 33.12 96.4592 32.7349 94.1122 35.732C91.7383 38.6791 92.1956 41.9047 92.3213 45.3982C92.4724 49.6076 91.4095 54.3081 87.4075 56.4795C84.1916 58.1528 80.3802 58.8586 79.2685 62.8525C77.9244 67.6808 82.5365 74.8287 76.6919 77.997C73.9701 79.4724 68.6156 80.7605 67.5947 84.599C67.1002 86.4579 67.7552 89.7087 67.4398 91.7283C67.3832 92.3293 67.3058 94.4767 67.7309 94.8522C68.0354 94.8744 68.2126 94.9241 68.4755 94.7989C68.5888 94.1393 68.4977 93.2836 68.5656 92.5121ZM66.1364 90.7633C65.0684 90.742 63.9255 90.7172 62.8582 90.7784C62.448 91.1948 62.4855 92.8024 62.5241 93.3945C62.666 95.573 62.2467 98.0009 62.7434 100.107C62.8352 100.471 69.1034 100.344 69.658 100.34C73.8925 100.287 78.1274 100.263 82.3623 100.268L113.606 100.27C118.928 100.265 124.271 100.302 129.594 100.236C130.129 100.23 131.031 100.202 131.509 100.022C132.059 99.3529 131.86 96.142 131.854 95.1292C131.852 93.6831 131.867 92.1917 131.835 90.7491C130.777 90.7332 129.38 90.6781 128.36 90.8849C128.351 92.0488 128.622 95.0874 127.945 96.0515C127.776 96.293 125.211 96.2654 124.758 96.2592C118.009 96.1625 111.246 96.3036 104.499 96.3311L82.3036 96.2619L71.2007 96.2841C70.3287 96.2805 67.2039 96.3569 66.5153 96.1367C65.9261 95.4514 66.1323 91.8641 66.1364 90.7633ZM68.031 81.5754C68.9867 80.59 70.0915 79.5212 71.3162 78.9398C74.5742 77.3916 78.7357 76.8243 78.4801 72.2064C78.2269 67.6293 76.1755 62.998 79.8792 59.1888C82.015 56.9926 84.7149 56.5904 87.2353 55.0662C90.3483 52.9907 91.0225 49.0324 90.9221 45.5586C90.8243 42.1747 90.4859 39.1925 92.2412 36.1227C95.4471 30.5162 101.277 32.7959 105.454 28.0524C106.503 26.8634 107.203 25.4087 107.48 23.8478C107.224 23.8427 106.647 23.815 106.422 23.856C105.05 24.0848 103.506 24.2796 102.178 24.6505C93.7355 27.009 85.9777 33.5828 86.5178 43.0767C86.6452 45.3507 86.5679 47.8915 85.4426 49.9245C83.1502 54.1084 78.141 53.6246 76.0642 58.065C75.9134 58.3899 75.785 58.7237 75.68 59.0663C74.383 63.2723 77.602 67.5716 75.1092 71.8442C72.9376 75.5655 67.5607 74.9636 67.4797 79.8461C67.4701 80.4249 67.2604 81.4724 67.5362 81.9713L67.6693 81.9891C67.8094 81.8408 67.9065 81.7405 68.031 81.5754ZM77.287 15.5683C78.1733 16.0967 79.0833 16.4859 79.9566 17.0026C82.4671 18.4882 83.6654 20.6336 84.7356 23.2172C85.9319 21.2192 86.5278 20.2274 88.3769 18.6864C91.6639 15.8302 91.6618 18.0571 93.0148 20.9159C93.8536 22.6883 94.1202 24.6371 94.5292 26.5275C96.1521 25.8049 98.4291 24.5828 99.2862 22.9856C101.391 19.0477 102.493 14.6114 102.513 10.1482C102.517 9.23649 102.676 7.33499 101.551 7.06308C100.165 6.72796 98.162 6.63848 96.7369 6.72707C90.8754 7.03458 86.3983 8.8237 81.4778 12.0674C80.1852 12.9196 78.7646 13.9047 77.7264 15.055C77.5758 15.2226 77.4293 15.3937 77.287 15.5683ZM74.168 70.7478C76.0444 66.2205 72.1064 60.9891 75.5466 56.2957C76.7399 54.6676 77.1978 54.7174 78.2946 53.5926C77.1421 49.5916 73.7209 45.3203 70.6469 42.5942C69.9573 41.9826 68.9508 41.1128 68.1615 40.6837C67.9424 40.5636 67.7121 40.4653 67.4738 40.3901C67.5714 43.1566 67.4797 46.0622 67.4876 48.8522L67.5067 67.1694C67.5057 68.3261 67.3509 74.5642 67.601 75.2957C68.2899 75.4253 71.3784 73.4661 72.1146 73.0107C73.0362 72.4398 73.6263 71.6924 74.168 70.7478ZM82.2371 94.9347C83.4033 94.933 84.6133 94.9472 85.7743 94.8912C85.7386 91.5676 86.1237 89.469 88.5234 86.8795C89.7464 85.5604 91.3105 84.5608 92.6197 83.3819C95.4423 80.8404 96.7008 77.7839 96.6711 74.0315C96.6387 69.948 95.6289 66.4886 98.8791 63.299C101.889 60.3455 105.602 59.2971 105.545 54.3596C105.527 52.8558 105.271 51.3334 104.594 49.9459C104.047 49.8509 103.147 49.7221 102.639 49.5757C102.402 51.1656 102.499 51.8651 102.037 53.5775C100.884 58.3251 95.7293 59.9079 93.8448 64.1086C93.0938 65.7819 92.8428 67.8681 93.0535 69.5796C93.9046 76.4941 91.1636 79.3339 85.6141 82.6478C82.7108 84.3815 79.5601 87.967 79.2237 91.4575C78.7327 95.3662 79.0678 94.8726 82.2371 94.9347ZM75.9355 16.8986C75.3093 17.5033 74.5225 18.6653 74.6019 19.5746C74.9025 23.0147 76.1819 27.0072 78.0039 29.9494C79.3765 32.1658 82.1365 34.3293 84.4373 35.4523L84.9361 35.6249L85.0352 35.5476C84.8665 34.9265 84.5402 34.3209 84.3224 33.7238C83.6257 31.8134 83.192 29.3478 83.514 27.3175C83.8259 25.3505 83.9675 24.8697 83.1526 22.9696C82.2192 20.793 80.9756 19.0309 78.8621 17.8301C77.9538 17.3154 77.0001 16.8422 75.9355 16.8986ZM67.8588 37.9632C68.22 38.5265 68.3459 38.6679 68.9432 39.0384C70.3081 38.0237 71.9245 36.9598 73.4291 36.1573C75.7087 35.0233 76.1329 35.0177 78.5139 34.6144C75.9416 32.8965 74.0376 31.8888 72.0075 29.3245C71.5433 28.7381 70.2723 26.578 69.9944 26.3451C69.5974 27.108 69.3721 28.0452 69.1118 28.8649C68.1977 31.743 67.7063 34.9293 67.8588 37.9632ZM79.5501 52.9171C81.846 51.9414 83.6426 50.8531 84.6146 48.4523C84.8793 47.7936 85.0532 47.1017 85.1312 46.396C85.2844 45.1007 85.1435 43.6968 85.1395 42.3922C85.1373 41.6511 85.4025 40.5204 85.1281 39.8658C84.8971 39.7401 84.9426 39.7852 84.6288 39.8102C83.5692 40.1291 82.3019 40.526 81.2404 40.7693C78.0528 41.4999 73.8089 41.4182 70.6209 40.6934C73.2091 43.0368 74.8388 44.6012 76.8008 47.4574C78.224 49.6849 78.4723 50.6622 79.5501 52.9171ZM125.554 43.1297C125.933 43.5226 126.446 44.0894 126.853 44.4255C126.974 42.8828 126.947 41.4139 126.965 39.8839C127.023 35.0143 126.375 30.3124 124.383 25.833C123.167 23.0976 122.677 21.8162 119.361 22.0723C118.658 22.3158 116.69 23.1706 116.77 24.0708C117.094 24.4393 118.05 25.04 118.493 25.3508C119.6 26.1331 120.56 27.1039 121.331 28.2189C125.022 33.4931 121.873 38.0726 125.554 43.1297ZM104.069 94.9241C102.564 93.5224 101.984 92.0585 101.854 90.0354C101.571 85.6145 105.08 82.9549 105.998 78.9984C106.64 76.2304 105.116 73.4661 104.189 70.9556C103.691 69.6036 103.427 68.3723 103.288 66.9102C103.202 66.034 103.185 65.1525 103.236 64.2737C103.264 63.8503 103.594 61.2812 103.574 61.2244L103.526 61.18C102.832 61.7588 101.647 62.5346 101.122 63.1134C100.835 64.7699 100.748 66.2737 101.067 67.9329C101.56 70.5002 102.588 72.5934 102.372 75.2859C102.186 77.5895 101.147 78.9628 100.018 80.8661C98.2083 83.8906 97.1999 87.4592 97.9117 90.9746C98.1135 91.9706 98.4479 93.3067 98.9763 94.1757C99.485 95.0111 100.44 94.9392 101.281 94.9321L104.069 94.9241ZM97.6815 94.8016C96.0098 90.5023 95.8418 87.01 97.5974 82.6043C98.3394 80.7427 99.7105 79.0729 100.509 77.2691C101.846 74.2473 100.509 71.7457 99.8568 68.8348C99.6471 67.8992 99.5624 65.8858 99.4991 64.8427L99.3959 64.7176C96.9698 67.9 98.1393 70.3191 98.0529 74.0457C98.0208 75.4288 97.8601 76.6272 97.5113 77.9659C96.9776 79.9802 95.9522 81.8302 94.5272 83.3508C91.9504 86.133 87.8539 87.9333 87.2207 92.1136C87.1187 92.7873 86.8085 94.3755 87.491 94.7874C87.9562 95.0688 89.2437 94.9161 89.8279 94.9232L94.3496 94.9259C95.3017 94.9276 96.8043 94.9765 97.6815 94.8016ZM86.5296 35.3595L86.9777 34.5822C87.8938 32.7391 89.0817 31.2022 90.478 29.7149C91.0097 29.1485 92.9349 27.7893 93.0249 27.2399C93.3367 25.3362 91.6266 20.0102 90.3621 18.7429C87.8738 20.4737 85.4692 23.7234 84.961 26.7406C84.4144 29.9859 85.1326 32.4892 86.5296 35.3595ZM73.1483 20.6092C72.387 21.7052 70.8627 23.8085 71.2208 25.0801C72.0666 28.0841 74.8424 30.5275 77.2005 32.2244C77.637 32.5023 78.0817 32.7799 78.5145 33.062C76.9788 30.9781 75.6809 28.8061 74.7527 26.3802C74.4757 25.656 73.2318 20.6976 73.1483 20.6092ZM126.856 65.6248C124.154 67.9613 121.45 70.4416 119.709 73.6099C121.12 74.9068 123.303 76.1417 124.363 77.8408C124.861 78.4994 125.309 79.0845 125.736 79.7929C126.157 80.4906 126.535 81.373 126.982 82.0255C127.052 80.8359 126.976 79.5718 126.979 78.3663C127.015 75.4927 127.012 72.6174 126.97 69.7438C126.966 69.2023 126.999 66.0243 126.906 65.6807L126.856 65.6248ZM124.814 48.3409C125.318 49.7124 125.779 50.2264 124.67 51.3973L124.984 52.6126C124.743 53.2162 124.349 53.6707 123.952 54.1838C124.04 55.5314 124.185 57.0192 123.207 58.0925C121.578 59.8786 118.557 58.8968 116.479 58.6917C115.54 58.5985 115.399 59.5004 115.103 60.1697C113.797 63.5671 113.077 67.3212 115.377 70.4478C116.288 71.4039 117.323 72.2348 118.453 72.9192C119.692 71.1944 120.834 69.561 122.292 68.0075C123.628 66.5827 125.407 65.4686 126.488 63.8813C127.155 62.9004 126.975 60.6225 126.97 59.4019L126.944 53.9655C126.943 52.9685 127.137 47.4141 126.763 46.8932C126.135 47.2687 125.323 47.8167 124.814 48.3409ZM70.8198 39.4098C72.9961 39.824 75.8461 40.2378 78.0625 39.9615C79.7272 39.8174 84.5496 38.8478 85.6196 37.8941C85.7908 37.3899 85.2939 37.2622 84.8735 37.1057C82.6675 36.2839 80.934 35.8342 78.5671 35.9319C76.0847 36.1617 72.7083 37.6897 70.856 39.3774L70.8198 39.4098ZM129.232 41.5329L128.286 41.5675L128.395 75.8061L128.38 84.2137C128.369 85.5258 128.261 88.1783 128.433 89.4007C129.227 89.5001 129.87 89.4708 130.667 89.4557L131.825 89.43C131.867 82.4321 131.871 75.4341 131.838 68.4362C131.872 59.4835 131.861 50.53 131.806 41.5765C130.914 41.5405 130.125 41.5092 129.232 41.5329ZM62.6043 41.2558C62.5165 52.6667 62.4912 64.0784 62.5286 75.4901L62.5397 84.5058C62.5406 85.5231 62.4852 88.2573 62.6471 89.1921C63.0889 89.5658 65.2932 89.4406 65.966 89.4326C66.1546 89.208 66.1222 89.0305 66.1244 88.6896C66.1451 85.3589 66.0891 82.0131 66.0947 78.6841C66.1467 71.5583 66.161 64.4335 66.1376 57.3077L66.1706 46.0215C66.1752 44.5525 66.2583 42.7137 66.2007 41.2831C65.0842 41.1938 63.7412 41.2395 62.6043 41.2558ZM107.469 77.1199C107.396 78.4258 107.305 79.8586 106.772 81.0694C105.305 84.4019 102.307 87.3838 103.42 91.3483C104.276 94.395 106.009 94.8575 108.885 94.8948C111.229 94.9259 113.581 94.9214 115.923 94.9259C116.724 94.9321 119.473 95.0439 120.063 94.7714C120.334 94.1722 119.505 92.1473 119.274 91.501C117.55 86.6709 114.531 83.2541 110.65 80.021C109.64 79.1794 108.541 77.9943 107.469 77.1199ZM104.324 7.7373C103.965 8.05741 103.978 8.30642 103.971 8.77851C103.905 12.9564 103.493 17.1708 101.649 20.9848C101.347 21.6088 100.844 22.5743 101.361 23.1545C101.576 23.2469 101.825 23.3028 102.056 23.2622C104.003 22.921 105.802 22.5671 107.788 22.4458C110.304 22.2922 112.49 22.6966 114.892 23.3793C115.505 22.9934 115.876 22.701 116.438 22.2538C118.27 20.8203 119.336 20.6422 121.602 20.7614C118.048 15.5944 114.102 11.8126 108.308 9.17417C107.098 8.6229 105.627 7.98737 104.324 7.7373Z" fill="#3D1FA8"/>
<path d="M28.1168 64.6676C27.9979 65.0374 27.9385 65.2223 27.9385 65.2223H35.5857V66.728H26.1753V54.3854H35.5857V55.8911H27.9385V61.9732C27.9385 61.9732 28.0177 61.8543 28.1762 61.6166C28.3479 61.3657 28.5857 61.0883 28.8894 60.7845C29.2064 60.4675 29.6159 60.1572 30.1178 59.8534C30.6196 59.5364 31.2338 59.2788 31.9602 59.0807C32.6866 58.8694 33.4989 58.7637 34.397 58.7637L34.4168 60.3289C33.3999 60.3289 32.5083 60.4873 31.7423 60.8043C30.9763 61.1081 30.3489 61.4977 29.8602 61.9732C29.3715 62.4487 28.9885 62.9242 28.7111 63.3996C28.447 63.8619 28.2489 64.2845 28.1168 64.6676ZM41.1756 54.2269C42.0606 54.2665 42.9191 54.4779 43.7511 54.8609C44.5832 55.2307 45.27 55.7656 45.8115 56.4656L44.8606 57.4364C44.8606 57.4364 44.7615 57.3439 44.5634 57.159C44.3785 56.9609 44.1276 56.7562 43.8106 56.5449C43.4936 56.3203 43.104 56.1222 42.6417 55.9505C42.1926 55.7788 41.704 55.6798 41.1756 55.6533C40.2379 55.6005 39.5049 55.693 38.9766 55.9307C38.4483 56.1552 38.1709 56.5184 38.1445 57.0203C38.1049 57.6015 38.3492 58.0505 38.8775 58.3675C39.419 58.6845 40.2643 59.0279 41.4134 59.3977C42.3775 59.7147 43.1634 60.0119 43.7709 60.2892C44.3917 60.5534 44.9266 60.9232 45.3757 61.3987C45.8247 61.8741 46.0757 62.4751 46.1285 63.2015C46.1813 64.1657 45.9502 64.9317 45.4351 65.4996C44.9332 66.0676 44.2794 66.4572 43.4738 66.6685C42.6813 66.8666 41.869 66.9393 41.037 66.8864C39.9671 66.8336 38.9766 66.5695 38.0652 66.094C37.1539 65.6053 36.3945 65.044 35.7869 64.41L36.7775 63.36C36.7775 63.36 36.8964 63.4723 37.1341 63.6968C37.3718 63.9081 37.6756 64.1393 38.0454 64.3902C38.4285 64.6279 38.8775 64.8459 39.3926 65.044C39.9077 65.2289 40.4624 65.3279 41.0568 65.3412C42.0209 65.3676 42.8002 65.2223 43.3945 64.9053C44.0021 64.5751 44.2927 64.1128 44.2662 63.5185C44.253 62.8845 43.9559 62.3958 43.3747 62.0524C42.7936 61.7091 41.9153 61.3458 40.7398 60.9628C39.7492 60.6458 38.9502 60.3487 38.3426 60.0713C37.7483 59.7939 37.253 59.4043 36.8567 58.9024C36.4605 58.4005 36.2888 57.7534 36.3416 56.9609C36.4209 56.0232 36.8766 55.3165 37.7086 54.8411C38.5539 54.3524 39.7096 54.1477 41.1756 54.2269ZM36.9527 76.8911H32.2376V87.728H30.4942V76.8911H25.779V75.3854H36.9527V76.8911ZM48.7507 81.5666C48.7507 83.3892 48.2092 84.8685 47.1262 86.0044C46.5847 86.5459 45.9045 86.9685 45.0856 87.2723C44.28 87.5761 43.362 87.728 42.3318 87.728H37.5375V75.3854H42.2724C44.3196 75.3854 45.9375 75.9665 47.1262 77.1288C48.2092 78.2251 48.7507 79.7043 48.7507 81.5666ZM39.3007 76.8911V86.2223H42.1535C43.6592 86.2223 44.8149 85.8393 45.6205 85.0732C46.4526 84.2808 46.8687 83.1119 46.8687 81.5666C46.8687 80.0345 46.4526 78.859 45.6205 78.0401C44.7885 77.2741 43.6394 76.8911 42.1733 76.8911H39.3007Z" fill="#3D1FA8"/>
<path d="M160.363 65.2421V66.7676H150.477V65.2421C150.477 65.2421 150.926 64.9845 151.824 64.4694C152.722 63.9411 153.66 63.327 154.637 62.627C155.628 61.9138 156.493 61.1543 157.233 60.3487C157.986 59.543 158.382 58.8034 158.421 58.1298C158.461 57.3109 158.197 56.6901 157.629 56.2675C157.061 55.8316 156.242 55.6599 155.172 55.7524C154.578 55.8184 154.056 55.9901 153.607 56.2675C153.158 56.5317 152.795 56.8288 152.518 57.159C152.24 57.4892 152.029 57.7996 151.884 58.0902C151.738 58.3807 151.666 58.526 151.666 58.526L150.219 57.9911C150.219 57.9911 150.312 57.793 150.497 57.3968C150.695 57.0005 150.979 56.5779 151.349 56.1288C151.732 55.6666 152.247 55.2571 152.894 54.9005C153.541 54.5307 154.301 54.3062 155.172 54.2269C156.797 54.0948 158.071 54.3986 158.996 55.1382C159.92 55.8647 160.37 56.8618 160.343 58.1298C160.304 59.0147 159.947 59.86 159.273 60.6656C158.6 61.4713 157.84 62.1713 156.995 62.7657C156.163 63.36 155.186 63.9874 154.063 64.6478C153.601 64.9251 153.284 65.1232 153.112 65.2421H160.363ZM165.965 54.4052C167.431 54.4052 168.725 55.026 169.848 56.2675C170.865 57.5222 171.373 58.9619 171.373 60.5864C171.373 61.4053 171.241 62.1911 170.977 62.944C170.726 63.6836 170.35 64.3374 169.848 64.9053C169.346 65.5129 168.758 65.9751 168.085 66.2921C167.411 66.6091 166.704 66.7676 165.965 66.7676C164.486 66.7676 163.191 66.1468 162.082 64.9053C161.593 64.3374 161.217 63.6836 160.952 62.944C160.688 62.1911 160.556 61.4053 160.556 60.5864C160.556 58.9619 161.065 57.5222 162.082 56.2675C163.191 55.026 164.486 54.4052 165.965 54.4052ZM167.332 64.9251C167.768 64.7006 168.157 64.377 168.501 63.9543C169.24 62.977 169.61 61.8543 169.61 60.5864C169.61 59.3185 169.24 58.2024 168.501 57.2383C167.748 56.3533 166.903 55.9109 165.965 55.9109C165.014 55.9109 164.169 56.3533 163.429 57.2383C162.676 58.1496 162.3 59.2656 162.3 60.5864C162.3 61.2336 162.392 61.8477 162.577 62.4289C162.775 63.01 163.059 63.5185 163.429 63.9543C163.772 64.377 164.162 64.7006 164.598 64.9251C165.034 65.1496 165.489 65.2619 165.965 65.2619C166.44 65.2619 166.896 65.1496 167.332 64.9251ZM160.363 86.2421V87.7676H150.477V86.2421C150.477 86.2421 150.926 85.9845 151.824 85.4694C152.722 84.9411 153.66 84.327 154.637 83.627C155.628 82.9138 156.493 82.1543 157.233 81.3487C157.986 80.543 158.382 79.8034 158.421 79.1298C158.461 78.3109 158.197 77.6901 157.629 77.2675C157.061 76.8316 156.242 76.6599 155.172 76.7524C154.578 76.8184 154.056 76.9901 153.607 77.2675C153.158 77.5317 152.795 77.8288 152.518 78.159C152.24 78.4892 152.029 78.7996 151.884 79.0902C151.738 79.3807 151.666 79.526 151.666 79.526L150.219 78.9911C150.219 78.9911 150.312 78.793 150.497 78.3968C150.695 78.0005 150.979 77.5779 151.349 77.1288C151.732 76.6666 152.247 76.2571 152.894 75.9005C153.541 75.5307 154.301 75.3062 155.172 75.2269C156.797 75.0948 158.071 75.3986 158.996 76.1382C159.92 76.8647 160.37 77.8618 160.343 79.1298C160.304 80.0147 159.947 80.86 159.273 81.6656C158.6 82.4713 157.84 83.1713 156.995 83.7657C156.163 84.36 155.186 84.9874 154.063 85.6478C153.601 85.9251 153.284 86.1232 153.112 86.2421H160.363ZM165.965 75.4052C167.431 75.4052 168.725 76.026 169.848 77.2675C170.865 78.5222 171.373 79.9619 171.373 81.5864C171.373 82.4053 171.241 83.1911 170.977 83.944C170.726 84.6836 170.35 85.3374 169.848 85.9053C169.346 86.5129 168.758 86.9751 168.085 87.2921C167.411 87.6091 166.704 87.7676 165.965 87.7676C164.486 87.7676 163.191 87.1468 162.082 85.9053C161.593 85.3374 161.217 84.6836 160.952 83.944C160.688 83.1911 160.556 82.4053 160.556 81.5864C160.556 79.9619 161.065 78.5222 162.082 77.2675C163.191 76.026 164.486 75.4052 165.965 75.4052ZM167.332 85.9251C167.768 85.7006 168.157 85.377 168.501 84.9543C169.24 83.977 169.61 82.8543 169.61 81.5864C169.61 80.3185 169.24 79.2024 168.501 78.2383C167.748 77.3533 166.903 76.9109 165.965 76.9109C165.014 76.9109 164.169 77.3533 163.429 78.2383C162.676 79.1496 162.3 80.2656 162.3 81.5864C162.3 82.2336 162.392 82.8477 162.577 83.4289C162.775 84.01 163.059 84.5185 163.429 84.9543C163.772 85.377 164.162 85.7006 164.598 85.9251C165.034 86.1496 165.489 86.2619 165.965 86.2619C166.44 86.2619 166.896 86.1496 167.332 85.9251Z" fill="#3D1FA8"/>
</svg>
